<?xml version="1.0" encoding="UTF-8"?><svg id="_レイヤー_1" xmlns="http://www.w3.org/2000/svg" viewBox="0 0 800 300"><defs><style>.cls-1{fill:#faf8f4;}.cls-2{fill:#2b7a78;}</style></defs><path class="cls-2" d="M264.58,51.12H121.86c-4.73,0-8.38,4.14-7.8,8.83l20.68,165.85c1.64,13.16,12.88,23.08,26.14,23.08h64.69c13.26,0,24.5-9.92,26.14-23.08l20.67-165.85c.58-4.69-3.07-8.83-7.8-8.83h0Z"/><path class="cls-1" d="M241.51,58.17l-29.55,1.88-7.74,7.53-6.09,16.4,5.19,19.4,29.3,6.41,13.8-5.19,7.53-19.68-12.46-26.75ZM238.67,92.59l-8.48,3.35-14.1-6.83,2.34-13.6,11.75-5.36,8.48,9.04v13.4Z"/><path class="cls-1" d="M238.33,119.72h-18.94l-8.51,5.17-8.41,13.63,4.23,19.04,12.46,9.64,17.55,1.88,15.22-12.66,2.3-24.71-15.89-11.99ZM236.13,152.42h-12l-4.37-8.46,6.09-8.46,12.3,3.97-2.01,12.95Z"/><polygon class="cls-1" points="182.68 184.19 183.25 200.21 173.18 197.51 164.65 199.17 160.45 204.39 158.82 212.14 161.51 217.68 167.53 221.32 174.1 222 183.39 218.07 186.51 215.28 189.79 231.67 186.18 233.1 175.64 237.11 164.87 237.11 157.89 235.4 152.17 233.12 146.98 227.52 141.85 215.98 141.08 206.9 144.52 195.82 147.53 190.37 152.81 186.9 162.91 184.19 169.39 182.79 178.75 183.28 182.68 184.19"/><polygon class="cls-1" points="144.56 64.36 148.92 114.89 163.04 113.67 160.38 82.82 164.97 76.59 172.36 75.72 177.32 81.82 179.94 112.21 194.29 110.97 190.95 72.25 180.56 62.65 167.25 62.4 158.11 64.59 158.54 61.52 144.56 64.36"/><path class="cls-1" d="M134.29,124.6c.14,1.22-1.18,45.52-1.18,45.52l12.66.56,1.3-23.78,2.6-3.52,3.66-1.4,4.07,1.68,2.61,4.58-1.27,23.17,13.95.53,2.26-23.67,3.08-4.16,2.9-.22,4.93,2.53,1.29,5.92-1.09,20.36,12.46.55,1.54-31.95-8.02-9.9-9.5-4.5-9.03,2.6-4.82,3.41-11.03-6.2-6.28.1-4.12,1.62.56-3.21-13.52-.65Z"/><path class="cls-1" d="M231.57,182.19l-.47,3.76-10.69-6.95-16.89,4.56-12.79,14.13,2.41,18.75,13.13,10.86,17.06.61-.46,2.46,12.46,2.31,8.95-48.35-12.71-2.13ZM219.33,213.48l-8.66-1.6-3.65-6.36,2.96-6.69,5.34-2.8,8.33,2.62,1.04,9.11-5.37,5.73Z"/><path class="cls-2" d="M310.77,162.8v49.34h-6.2v-49.34h6.2ZM331.99,162.8h7.12l-20.65,23.33,22.42,26.01h-7.4l-22-25.8,20.52-23.54Z"/><path class="cls-2" d="M382.24,176.62v35.53h-5.85v-5.78c-1.48,1.98-3.31,3.53-5.57,4.72-2.25,1.2-4.72,1.76-7.47,1.76s-5.01-.49-7.12-1.41c-2.26-.92-4.09-2.25-5.71-3.88-1.62-1.62-2.82-3.59-3.74-5.85-.92-2.25-1.34-4.72-1.34-7.4s.42-5.08,1.34-7.26c.92-2.26,2.11-4.23,3.74-5.85,1.62-1.62,3.45-2.96,5.71-3.88,2.11-.92,4.51-1.41,7.12-1.41,2.75,0,5.22.56,7.47,1.69,2.26,1.19,4.09,2.75,5.57,4.72v-5.71h5.85ZM364.06,180.99c-1.76,0-3.46.35-5.01.99-1.48.64-2.82,1.55-3.95,2.82-1.06,1.13-1.91,2.54-2.54,4.23-.64,1.55-.92,3.38-.92,5.36s.28,3.81.92,5.36c.64,1.69,1.48,3.1,2.54,4.23,1.13,1.27,2.47,2.18,3.95,2.82,1.48.64,3.17.99,5.01.99s3.52-.35,5-.99c1.48-.64,2.82-1.55,3.88-2.82,1.06-1.13,1.91-2.54,2.54-4.23.63-1.55.91-3.39.91-5.36s-.28-3.81-.91-5.36c-.64-1.69-1.48-3.1-2.54-4.23-1.06-1.27-2.4-2.18-3.88-2.82-1.48-.64-3.17-.99-5-.99Z"/><path class="cls-2" d="M407.96,212.29c-2.54,0-4.86-.42-7.12-1.41-2.12-.85-4.02-2.11-5.64-3.81-1.55-1.55-2.75-3.52-3.67-5.71-.92-2.18-1.34-4.65-1.34-7.26s.42-5.08,1.34-7.26c.92-2.19,2.12-4.16,3.67-5.71,1.62-1.69,3.52-2.96,5.64-3.81,2.26-.99,4.58-1.41,7.12-1.41,2.75,0,5.29.56,7.48,1.69,2.18,1.05,4.02,2.61,5.5,4.58v-5.57h5.85l.07,35.38c0,2.39-.42,4.51-1.34,6.49-.91,1.83-2.18,3.45-3.87,4.79-1.69,1.34-3.74,2.32-6.13,3.03-2.46.71-5.22,1.06-8.25,1.06-1.34,0-2.74,0-4.44-.14-1.55,0-3.53-.21-5.78-.49l.35-5.29c1.83.35,3.59.56,5.43.71,1.69.14,3.31.21,4.72.21,4.3,0,7.55-.92,9.94-2.75,2.26-1.76,3.46-4.3,3.46-7.54v-6.06c-1.48,1.91-3.32,3.46-5.57,4.58-2.18,1.13-4.65,1.69-7.4,1.69ZM408.74,180.99c-1.76,0-3.45.28-4.93.99-1.48.56-2.82,1.48-3.95,2.68-1.06,1.2-1.9,2.54-2.54,4.09-.64,1.62-.92,3.38-.92,5.29s.28,3.74.92,5.29c.64,1.69,1.48,3.03,2.54,4.23,1.06,1.13,2.4,2.04,3.88,2.68,1.48.64,3.17.99,4.93.99s3.46-.35,4.94-.99c1.48-.64,2.81-1.55,3.87-2.68,1.06-1.2,1.91-2.54,2.54-4.23.64-1.55.92-3.38.92-5.29s-.28-3.66-.92-5.29c-.64-1.55-1.48-2.89-2.54-4.09-1.06-1.2-2.39-2.11-3.8-2.68-1.55-.71-3.18-.99-4.94-.99Z"/><path class="cls-2" d="M471.39,176.62v35.53h-5.85v-5.78c-1.48,1.98-3.31,3.53-5.56,4.72-2.26,1.2-4.73,1.76-7.48,1.76-2.61,0-5.01-.49-7.12-1.41-2.25-.92-4.08-2.25-5.71-3.88s-2.82-3.59-3.74-5.85c-.91-2.25-1.34-4.72-1.34-7.4s.42-5.08,1.34-7.26c.92-2.26,2.12-4.23,3.74-5.85,1.62-1.62,3.45-2.96,5.71-3.88,2.12-.92,4.52-1.41,7.12-1.41,2.75,0,5.22.56,7.48,1.69,2.25,1.19,4.08,2.75,5.56,4.72v-5.71h5.85ZM453.21,180.99c-1.76,0-3.45.35-5.01.99-1.48.64-2.82,1.55-3.95,2.82-1.06,1.13-1.9,2.54-2.54,4.23-.64,1.55-.92,3.38-.92,5.36s.28,3.81.92,5.36c.64,1.69,1.48,3.1,2.54,4.23,1.12,1.27,2.46,2.18,3.95,2.82,1.48.64,3.18.99,5.01.99s3.52-.35,5.01-.99c1.48-.64,2.82-1.55,3.88-2.82,1.05-1.13,1.9-2.54,2.54-4.23.64-1.55.92-3.39.92-5.36s-.28-3.81-.92-5.36c-.64-1.69-1.48-3.1-2.54-4.23-1.06-1.27-2.39-2.18-3.88-2.82-1.48-.64-3.18-.99-5.01-.99Z"/><path class="cls-2" d="M520.17,212.92l-13.18-25.73-13.33,25.66-16.42-36.23h6.56l10.78,24.04,11.42-24.04h2.05l11.49,24.04,10.64-24.04h6.49l-16.49,36.3Z"/><path class="cls-2" d="M575.14,176.62v35.53h-5.86v-5.78c-1.48,1.98-3.31,3.53-5.56,4.72-2.26,1.2-4.72,1.76-7.47,1.76s-5.01-.49-7.12-1.41c-2.25-.92-4.09-2.25-5.71-3.88-1.62-1.62-2.82-3.59-3.74-5.85-.91-2.25-1.34-4.72-1.34-7.4s.42-5.08,1.34-7.26c.92-2.26,2.11-4.23,3.74-5.85,1.62-1.62,3.46-2.96,5.71-3.88,2.11-.92,4.51-1.41,7.12-1.41,2.75,0,5.21.56,7.47,1.69,2.26,1.19,4.09,2.75,5.56,4.72v-5.71h5.86ZM556.96,180.99c-1.76,0-3.46.35-5.01.99-1.48.64-2.82,1.55-3.94,2.82-1.06,1.13-1.91,2.54-2.54,4.23-.64,1.55-.92,3.38-.92,5.36s.28,3.81.92,5.36c.64,1.69,1.48,3.1,2.54,4.23,1.12,1.27,2.46,2.18,3.94,2.82,1.48.64,3.18.99,5.01.99s3.52-.35,5-.99c1.48-.64,2.82-1.55,3.88-2.82,1.05-1.13,1.9-2.54,2.54-4.23.63-1.55.91-3.39.91-5.36s-.28-3.81-.91-5.36c-.64-1.69-1.48-3.1-2.54-4.23-1.06-1.27-2.4-2.18-3.88-2.82s-3.17-.99-5-.99Z"/><path class="cls-2" d="M317.13,142.46h-12.56v-50.63h12.56v5.38c2.29-1.99,4.88-3.59,7.87-4.68,2.89-1.1,6.08-1.7,9.47-1.7s6.28.5,8.87,1.6c2.79,1,4.98,2.39,6.98,4.39,1.79,1.79,3.28,4.09,4.38,6.78,1,2.59,1.5,5.48,1.5,8.77v30.1h-12.56v-29.2c0-3.69-1-6.48-3.09-8.67-2.09-1.99-4.88-3.09-8.47-3.09-4.58,0-8.27,1.5-10.86,4.49-2.79,3.09-4.08,7.18-4.08,12.26v24.22Z"/><path class="cls-2" d="M390.1,143.46c-3.98,0-7.67-.7-10.96-1.99-3.39-1.29-6.28-3.19-8.77-5.48-2.39-2.29-4.28-5.08-5.68-8.27-1.39-3.29-2.09-6.78-2.09-10.56s.7-7.28,1.99-10.57c1.4-3.19,3.29-5.98,5.78-8.27s5.38-4.18,8.77-5.48c3.29-1.29,6.98-1.99,10.96-1.99s7.68.6,10.97,1.99c3.29,1.2,6.18,3.09,8.67,5.38,2.5,2.39,4.39,5.19,5.68,8.37,1.39,3.29,2.09,6.78,2.09,10.57s-.7,7.28-2.09,10.56c-1.29,3.19-3.19,5.98-5.58,8.37-2.49,2.29-5.38,4.18-8.77,5.38-3.29,1.39-6.98,1.99-10.97,1.99ZM390.1,101.5c-4.28,0-7.67,1.4-10.36,4.29-2.69,2.89-3.99,6.68-3.99,11.36s1.3,8.37,3.99,11.36c2.59,2.79,6.08,4.29,10.36,4.29s7.78-1.5,10.37-4.29c2.69-2.99,3.99-6.68,3.99-11.36s-1.3-8.47-3.99-11.36c-2.69-2.89-6.08-4.29-10.37-4.29Z"/><path class="cls-2" d="M436.97,142.46h-12.56v-50.63h12.56v5.38c2.09-1.99,4.58-3.59,7.47-4.68,2.79-1.1,5.88-1.7,9.27-1.7,4.08,0,7.67.8,10.76,2.39,3.09,1.6,5.48,3.79,7.27,6.68,2.3-2.89,5.08-5.08,8.38-6.68,3.38-1.59,7.17-2.39,11.36-2.39,3.29,0,6.28.5,8.97,1.6,2.69,1,5.08,2.39,6.98,4.39,1.89,1.79,3.39,4.09,4.58,6.78,1,2.59,1.6,5.48,1.6,8.77v30.1h-12.56v-29.2c0-3.69-1-6.48-3.19-8.67-1.99-1.99-4.88-3.09-8.48-3.09-1.89,0-3.59.3-5.28.9-1.7.6-3.09,1.39-4.39,2.59-1.29,1-2.19,2.3-2.99,3.79-.6,1.39-1,2.99-1,4.68v29h-12.66v-29.2c0-3.69-1-6.48-2.99-8.67-1.99-1.99-4.78-3.09-8.37-3.09-4.59,0-8.18,1.5-10.86,4.49-2.59,2.89-3.89,6.88-3.89,11.86v24.62Z"/><path class="cls-2" d="M547.82,143.46c-3.99,0-7.67-.7-10.97-1.99-3.38-1.29-6.27-3.19-8.77-5.48-2.39-2.29-4.28-5.08-5.68-8.27-1.39-3.29-2.09-6.78-2.09-10.56s.7-7.28,1.99-10.57c1.4-3.19,3.29-5.98,5.78-8.27,2.5-2.29,5.39-4.18,8.77-5.48,3.29-1.29,6.98-1.99,10.97-1.99s7.67.6,10.97,1.99c3.29,1.2,6.18,3.09,8.67,5.38,2.49,2.39,4.39,5.19,5.68,8.37,1.4,3.29,2.09,6.78,2.09,10.57s-.7,7.28-2.09,10.56c-1.29,3.19-3.19,5.98-5.58,8.37-2.49,2.29-5.38,4.18-8.77,5.38-3.29,1.39-6.98,1.99-10.97,1.99ZM547.82,101.5c-4.28,0-7.67,1.4-10.36,4.29-2.69,2.89-3.99,6.68-3.99,11.36s1.29,8.37,3.99,11.36c2.59,2.79,6.08,4.29,10.36,4.29s7.77-1.5,10.37-4.29c2.69-2.99,3.99-6.68,3.99-11.36s-1.29-8.47-3.99-11.36c-2.69-2.89-6.08-4.29-10.37-4.29Z"/><path class="cls-2" d="M609.24,101.5c-4.49,0-8.18,1.4-10.86,4.29-2.79,2.89-4.19,6.68-4.19,11.36,0,2.29.4,4.39,1.1,6.28.7,1.89,1.79,3.59,3.09,4.88,1.29,1.39,2.99,2.49,4.78,3.19,1.99.8,3.99,1.2,6.28,1.2,2.49,0,4.88-.4,7.17-1.29,2.3-.9,4.29-2.09,5.78-3.59l5.08,8.47c-2.49,2.09-5.48,3.89-8.77,5.18-3.39,1.29-6.68,1.99-9.87,1.99-4.09,0-7.77-.7-11.16-1.99s-6.28-3.19-8.77-5.48c-2.49-2.29-4.39-5.08-5.78-8.27-1.39-3.29-2.09-6.78-2.09-10.56s.7-7.28,2.09-10.57c1.4-3.19,3.29-5.98,5.78-8.27s5.38-4.18,8.77-5.48c3.39-1.29,7.07-1.99,11.06-1.99,3.29,0,6.38.5,9.17,1.39,2.99.9,5.58,2.3,7.87,3.99l-3.99,10.67c-1.5-1.6-3.29-2.89-5.48-3.89s-4.59-1.5-7.07-1.5Z"/><path class="cls-2" d="M686,91.83v50.63h-12.56v-4.88c-1.99,1.89-4.28,3.29-6.88,4.28-2.69,1.1-5.58,1.6-8.67,1.6-3.79,0-7.28-.7-10.37-1.99-3.09-1.29-5.78-3.19-8.07-5.48-2.19-2.29-3.89-5.08-5.19-8.27-1.29-3.29-1.89-6.78-1.89-10.66s.6-7.28,1.89-10.47c1.3-3.19,2.99-5.98,5.29-8.27,2.29-2.29,4.98-4.18,8.07-5.48,3.09-1.29,6.58-1.99,10.27-1.99,3.09,0,5.98.5,8.67,1.6,2.59,1,4.88,2.39,6.88,4.18v-4.78h12.56ZM659.39,101.5c-4.18,0-7.58,1.4-10.17,4.29-2.49,2.89-3.79,6.68-3.79,11.36,0,2.29.3,4.48,1,6.38.7,1.89,1.59,3.59,2.79,4.98,1.29,1.3,2.79,2.4,4.48,3.19,1.7.7,3.59,1.1,5.68,1.1s3.99-.4,5.78-1.1c1.59-.8,3.09-1.89,4.38-3.19,1.2-1.39,2.09-3.09,2.79-4.98.7-1.9,1-4.09,1-6.38s-.3-4.49-1-6.38c-.7-1.9-1.59-3.59-2.79-4.98-1.29-1.3-2.79-2.39-4.38-3.19-1.8-.7-3.69-1.1-5.78-1.1Z"/></svg>